<svg width="159" height="70" viewBox="0 0 259 70" fill="none" xmlns="http://www.w3.org/2000/svg">
<rect x="16.4388" y="54.976" width="218.691" height="13.205" fill="white"/>
<path fill-rule="evenodd" clip-rule="evenodd" d="M5.32243 54.3022L0 69.5284L238.296 69.6631L243.619 54.3696L5.32243 54.3022ZM186.2 56.8256C187.284 56.8532 188.656 56.8268 189.249 56.7668C191.002 56.5898 191.316 56.7554 190.853 57.6136C190.626 58.0357 189.977 58.4831 189.593 58.4831C188.947 58.4831 188.373 59.2484 188.373 60.1103C188.373 60.316 188.256 61.0802 188.113 61.8081C187.97 62.5361 187.753 63.8291 187.632 64.6814C187.381 66.4491 187.218 66.7025 186.331 66.7025C185.796 66.7025 185.14 66.2494 185.14 65.8794C185.14 65.6395 185.771 62.2458 186.09 60.7698C186.414 59.2743 186.341 58.9059 185.656 58.5805C185.064 58.2992 184.489 57.6855 184.344 57.1812L184.228 56.7753L186.2 56.8256ZM20.186 58.0987C20.352 57.2945 20.6068 56.9382 21.0876 56.8376C21.2358 56.8066 21.4177 56.7951 21.4918 56.8124C21.5659 56.8296 21.7987 56.8815 22.0092 56.9279C22.3799 57.0095 22.3901 57.0342 22.3337 57.714C22.255 58.6626 22.0094 60.2166 21.6032 62.3346L21.5434 62.6451C21.3128 63.839 21.2138 64.3515 21.4247 64.5898C21.5833 64.7691 21.9173 64.7932 22.5024 64.8355C22.5667 64.8402 22.634 64.845 22.7045 64.8503C23.4456 64.9063 24.1278 64.9801 24.2204 65.0146C24.483 65.1121 24.4187 65.9543 24.1199 66.3344C23.9071 66.6048 23.7027 66.6878 23.143 66.7311C22.1363 66.8089 19.3247 66.6073 19.0014 66.4344C18.5951 66.2169 18.6473 65.5599 19.3391 62.1914C19.6737 60.5625 19.9178 59.1528 19.8816 59.0586C19.8455 58.9644 19.8626 58.8873 19.9195 58.8873C19.9765 58.8873 20.0964 58.5324 20.186 58.0987ZM49.9904 56.8234C48.8825 57.0133 48.8391 57.0578 48.5316 58.3184C48.374 58.9648 48.2089 59.7362 48.165 60.0327C48.0705 60.6688 47.8277 61.8365 47.4224 63.6034C47.2608 64.3074 47.0985 65.2625 47.0617 65.7256C47.0016 66.4794 47.021 66.5689 47.2461 66.5782C47.3844 66.5838 47.6188 66.6117 47.7671 66.6401C48.1182 66.7077 48.9124 66.422 48.9124 66.2284C48.9985 66.2276 49.0021 66.2223 49.0286 66.1835C49.0436 66.1616 49.0659 66.1289 49.1145 66.0803L49.1819 65.9576L49.5187 64.7449C49.5445 64.6935 49.5612 64.6566 49.5755 64.625C49.5986 64.574 49.6154 64.5371 49.6535 64.4754C49.7051 64.3918 49.7775 64.0836 49.7987 63.7284C49.8408 63.0271 50.171 62.3907 50.4932 62.3907C50.6453 62.3907 50.6736 62.4825 50.6075 62.7612C50.559 62.9651 50.4547 63.6856 50.3757 64.3623C50.25 65.4402 50.2608 65.6533 50.4634 66.0803C50.6604 66.4954 50.7608 66.5678 51.14 66.5678C51.385 66.5678 51.6911 66.6084 51.8205 66.6581C51.9031 66.6581 51.9442 66.6314 51.9708 66.611L51.989 66.5918C52.0866 66.4887 52.1498 66.4219 52.208 66.3014C52.385 66.2065 52.5679 65.978 52.6141 65.7935C52.6605 65.6089 52.7354 65.495 52.7805 65.5401C52.8012 65.5608 52.9323 65.0433 53.0776 64.4692C53.2488 63.7928 53.4399 63.0379 53.4937 62.9933C53.5454 62.8898 53.5575 62.8261 53.5907 62.6497C53.6008 62.5963 53.6128 62.5326 53.6285 62.4543C53.7632 61.7806 54.1674 62.5217 54.0439 63.2627C53.9203 64.0038 53.7632 65.5247 53.7632 65.7136C53.7632 65.854 53.8629 66.1113 53.9849 66.2852C54.1867 66.5734 54.2777 66.5953 55.0061 66.5291C55.4459 66.4892 55.8398 66.4227 55.8813 66.381C56.035 66.2273 57.1272 59.1832 57.1674 58.0864C57.1968 57.2831 57.174 57.2044 56.8623 57.0354C56.5625 56.8729 55.86 56.8703 54.4706 57.0269C54.3781 57.0373 54.3022 57.1189 54.3022 57.2084C54.3022 57.2977 54.1859 57.6362 54.0439 57.9607C53.9017 58.285 53.6772 59.0203 53.5448 59.5947C53.4125 60.1692 53.2407 60.6467 53.1631 60.6563C52.6403 60.72 52.3904 60.6687 52.2764 60.6453C52.2475 60.6394 52.2273 60.6352 52.2136 60.6352H52.0789C52.0643 60.6352 52.0513 60.6359 52.0394 60.6365C51.9961 60.6386 51.9676 60.6401 51.9343 60.6068C51.8919 60.5644 51.8416 59.872 51.8226 59.0684C51.8035 58.2648 51.7461 57.515 51.695 57.4022C51.5039 56.9807 50.6886 56.7038 49.9904 56.8234ZM202.925 58.5443C203.149 57.1339 203.274 56.9489 204.074 56.8536C204.443 56.8097 204.764 56.7643 204.787 56.7526C204.809 56.741 204.793 56.7877 204.751 56.8564C204.708 56.9252 204.796 57.0203 204.945 57.0676C205.179 57.1421 205.216 57.2673 205.211 57.9868C205.207 58.4451 205.151 59.0625 205.085 59.3589C205.02 59.6554 204.811 60.7006 204.621 61.6817C204.11 64.3318 203.861 65.2555 203.57 65.5773C203.426 65.7366 202.946 66.0295 202.503 66.2282C201.818 66.536 201.521 66.5883 200.508 66.5805C199.065 66.5691 198.201 66.2599 197.881 65.6393C197.644 65.1819 197.612 64.0896 197.81 63.232C197.882 62.9166 197.977 62.4315 198.019 62.1541C198.062 61.8766 198.238 61.0432 198.41 60.3021C198.583 59.5611 198.766 58.5909 198.817 58.1462C198.958 56.9292 199.017 56.8662 200.017 56.8662C201.14 56.8662 201.237 56.9859 201.116 58.2191C201.064 58.7398 200.94 59.4518 200.839 59.8014C200.738 60.151 200.495 61.2664 200.299 62.2803C199.907 64.3046 199.94 64.5772 200.604 64.83C201.403 65.1336 201.843 64.6153 202.051 63.1268C202.102 62.759 202.286 61.7911 202.46 60.9759C202.633 60.1607 202.843 59.0664 202.925 58.5443ZM66.0239 57.0696C65.9311 57.1815 65.7396 57.9545 65.5984 58.7876C65.1377 61.5056 64.9677 62.4426 64.7494 63.4634C64.6312 64.0163 64.4979 64.9018 64.4532 65.4314L64.3718 66.3941L64.8143 66.5482C65.3309 66.7284 66.0169 66.7462 66.2693 66.5862C66.4499 66.4717 66.8738 64.9669 67.0337 63.8729C67.0823 63.5394 67.2735 62.4783 67.4585 61.5149C67.6436 60.5514 67.8511 59.2312 67.9196 58.581C68.0836 57.0299 67.9912 56.8662 66.9523 56.8662C66.4393 56.8662 66.1379 56.9322 66.0239 57.0696ZM76.0611 59.1696C76.1966 57.877 76.4041 57.2777 76.788 57.0689C77.3006 56.7904 78.4582 56.8109 78.8211 57.1048C79.1726 57.3894 79.4836 58.7026 79.4309 59.6796C79.3905 60.4287 79.4581 60.5929 79.8346 60.6592L79.8386 60.6599C79.8875 60.6685 79.9276 60.6756 79.964 60.6668C80.1329 60.6261 80.2192 60.2434 80.7066 58.083L80.7067 58.0829L80.7156 58.0434C80.8119 57.6164 80.9799 57.193 81.0888 57.1026C81.3056 56.9227 82.7677 56.8364 82.6605 57.0098C82.6241 57.0688 82.6559 57.155 82.7312 57.2017C82.9399 57.3308 82.8928 58.1469 82.5948 59.5611C82.4466 60.2651 82.1409 61.9221 81.9156 63.2434L81.912 63.2646C81.5223 65.5498 81.4027 66.2514 81.0133 66.468C80.8408 66.5639 80.6153 66.5647 80.2899 66.5657L80.283 66.5658C79.0131 66.5698 78.7944 66.3011 78.6162 64.5167C78.5664 64.0185 78.4452 63.5442 78.3469 63.4626L78.3344 63.4352C78.2818 63.32 78.2503 63.2511 78.2503 63.0998C78.2194 62.9933 78.1967 62.9808 78.1864 62.9758C78.0847 62.9259 78.0173 62.9003 77.9851 62.9003L77.9814 62.9002L77.9765 62.8999L77.9685 62.8992C77.9314 62.8956 77.8888 62.8914 77.8514 63.0344C77.8152 63.128 77.7478 63.2628 77.7478 63.2628L77.6131 63.3975L77.4642 63.5684L77.4563 63.5824L77.4468 63.5988C77.3711 63.7283 77.1543 64.0996 76.8671 65.3797C76.662 66.2934 76.5897 66.4336 76.2504 66.5741C76.0281 66.6662 75.6634 66.6954 75.3859 66.6434C74.6454 66.5045 74.6019 66.1995 75.0448 64.2568C75.6466 61.6182 75.9787 59.9554 76.0611 59.1696ZM159.656 57.2367C159.576 57.4406 159.424 58.1226 159.318 58.7526C158.954 60.9185 158.45 63.5379 158.173 64.7044C158.021 65.347 157.935 65.9951 157.982 66.1446C158.14 66.6406 159.438 66.8419 160.034 66.4627C160.217 66.3457 160.781 63.9866 161.071 62.1212C161.181 61.4172 161.366 60.4028 161.483 59.8671C161.717 58.7975 161.803 57.2863 161.644 57.0296C161.582 56.9288 161.21 56.8662 160.672 56.8662C159.847 56.8662 159.793 56.8857 159.656 57.2367ZM35.9482 56.9512C35.6279 57.045 34.8403 58.1513 34.5199 58.9575C34.3733 59.3265 34.0291 60.1438 33.7549 60.7738C31.8752 65.0935 31.665 65.6461 31.665 66.2666V66.74L32.4785 66.6661C32.926 66.6256 33.379 66.5202 33.4854 66.432C33.5918 66.3437 33.8269 65.9477 34.0081 65.5521C34.2932 64.9293 34.4006 64.8207 34.8061 64.7446C35.5828 64.5989 36.2186 65.0925 36.5115 66.0683L36.6649 66.5792L37.6346 66.5399L38.6044 66.5004L38.6718 65.8267C38.7402 65.1427 38.6462 63.2019 38.3914 60.0327C38.1914 57.5465 38.1673 57.434 37.7819 57.1815C37.442 56.9587 36.3783 56.8251 35.9482 56.9512ZM35.9367 63.1752C36.2419 63.117 36.5731 61.8626 36.4528 61.221C36.3484 60.6641 35.906 60.6125 35.4449 61.1031C35.1703 61.3955 35.1459 61.5155 35.2278 62.1717C35.3254 62.9519 35.5369 63.2514 35.9367 63.1752ZM91.7752 60.0013C92.4748 58.2128 93.0977 57.2418 93.7021 56.9974C94.4038 56.7138 95.5486 56.933 95.7501 57.3896C95.803 57.5093 95.8914 58.2742 95.9467 59.0894C96.002 59.9047 96.1223 61.5721 96.2141 62.7949C96.3058 64.0177 96.3875 65.3517 96.3954 65.7593L96.41 66.5004L95.4308 66.54L94.4517 66.5796L94.2007 66.001C93.881 65.2641 93.4054 64.8253 92.8248 64.7316C92.2763 64.6431 91.8404 65.0285 91.5627 65.8476C91.3437 66.4929 90.9426 66.7151 90.077 66.6701C89.4229 66.6362 89.402 66.6222 89.3608 66.1948C89.3324 65.8999 89.502 65.3439 89.8746 64.5105C90.8407 62.3496 91.0605 61.828 91.7752 60.0013ZM93.9125 60.8996C94.1964 61.4301 93.9614 63.2016 93.6077 63.1971C93.2013 63.1919 93.0538 62.9235 93.0031 62.0967C92.9586 61.3708 92.9931 61.2008 93.2373 60.9422C93.5878 60.571 93.7317 60.5619 93.9125 60.8996ZM107.257 56.8205C106.055 56.9237 105.782 57.3097 105.501 59.3015C105.414 59.9259 105.232 60.9826 105.098 61.6496C104.683 63.712 104.392 65.8708 104.482 66.2273C104.58 66.6185 104.737 66.6393 107.12 66.5768C109.95 66.5026 110.935 65.8574 111.281 63.854C111.349 63.4568 111.539 62.5024 111.702 61.733C112.076 59.9681 112.052 58.1332 111.648 57.6872C111.137 57.1228 108.893 56.6801 107.257 56.8205ZM109.35 61.6496C109.699 60.6157 109.727 59.6344 109.429 58.9606C109.198 58.437 109.102 58.3483 108.768 58.3483C108.107 58.3483 107.737 59.0145 107.601 60.4527C107.558 60.9061 107.403 61.8156 107.258 62.4738C106.805 64.5242 106.907 64.866 107.954 64.7906C108.477 64.753 108.562 64.6969 108.782 64.2471C108.917 63.9711 109.059 63.3951 109.098 62.967C109.137 62.5389 109.25 61.946 109.35 61.6496ZM121.051 57.5819C121.304 57.4197 121.805 57.1929 122.165 57.078C123.766 56.5668 125.928 57.1517 126.27 58.1885C126.483 58.8349 126.349 60.3911 125.872 62.8049C125.45 64.9428 125.384 65.1179 124.819 65.6417C123.541 66.825 120.13 66.8621 119.155 65.7033C118.824 65.3093 118.813 65.2401 118.887 64.077C118.931 63.409 119.084 62.4379 119.229 61.9191C119.375 61.4003 119.563 60.629 119.649 60.2053C119.872 59.1084 120.498 57.9368 121.051 57.5819ZM123.876 59.0574C124.096 59.5078 124.107 59.6672 123.969 60.4854C123.883 60.9919 123.735 61.5569 123.64 61.7408C123.544 61.9246 123.495 62.2682 123.529 62.5042C123.616 63.0922 123.332 64.1457 122.989 64.5129C122.641 64.8854 121.96 64.9139 121.54 64.5738C121.257 64.3442 121.248 64.286 121.385 63.4622C121.464 62.984 121.652 62.0168 121.802 61.3127C121.953 60.6087 122.076 59.9006 122.077 59.7391C122.078 59.5776 122.287 59.2243 122.543 58.9539C123.138 58.3223 123.532 58.3529 123.876 59.0574ZM146.106 57.0145C145.738 57.1211 145.649 57.2382 145.472 57.8445C145.066 59.2449 144.562 61.9442 144.141 64.9739C144.016 65.8751 144.027 66.0521 144.225 66.355C144.618 66.954 145.868 66.7669 146.19 66.0611C146.275 65.8729 146.43 65.1542 146.534 64.464L146.556 64.3139C146.684 63.4607 146.744 63.0581 146.978 62.8601C147.186 62.6832 147.533 62.6696 148.19 62.6439L148.32 62.6388C149.501 62.5913 149.691 62.5475 150.114 62.2243C150.517 61.9172 150.656 61.6534 151.039 60.4671C151.447 59.2065 151.474 59.0229 151.326 58.5716C150.907 57.3042 149.985 56.8579 147.824 56.8783C147.115 56.885 146.342 56.9463 146.106 57.0145ZM149.028 59.6772C149.028 59.2329 148.965 58.7523 148.888 58.6089C148.517 57.9142 147.34 58.7685 147.2 59.8355C147.105 60.5503 147.295 60.869 147.885 60.9846C148.182 61.043 148.39 60.9866 148.66 60.7746C148.988 60.5164 149.028 60.3965 149.028 59.6772ZM213.76 57.8114C213.867 57.3966 214.02 57.1542 214.248 57.0386C214.673 56.824 217.275 56.811 218.102 57.0194C218.442 57.1048 218.91 57.3607 219.161 57.5971C219.773 58.1741 219.881 58.8174 219.57 60.0244C219.327 60.9686 218.935 61.7815 218.792 61.6384C218.749 61.5958 218.768 61.7931 218.834 62.0769C219.1 63.2218 218.788 66.2049 218.375 66.4624C218.106 66.6308 217.117 66.7333 216.682 66.6379C216.17 66.5253 216.146 66.2429 216.535 64.8835C216.683 64.3652 216.805 63.8059 216.805 63.6406C216.805 63.2673 216.284 62.9095 215.701 62.8825C215.16 62.8573 214.988 63.1625 214.71 64.6442C214.395 66.3243 214.37 66.3938 214.023 66.5519C213.539 66.7723 212.753 66.7357 212.47 66.4795C212.327 66.3504 212.223 66.0717 212.223 65.8175C212.223 65.1402 213.246 59.8152 213.76 57.8114ZM217.224 58.7189C217.398 59.1704 217.321 60.7155 217.114 60.9228C216.922 61.1144 216.13 61.182 215.843 61.0313C215.309 60.751 215.453 59.1765 216.059 58.6546C216.559 58.2247 217.043 58.2515 217.224 58.7189ZM230.22 57.3198C229.967 57.5878 229.637 58.126 229.487 58.5157C228.955 59.8959 228.494 60.9778 228.376 61.1253C228.31 61.2075 228.143 61.6016 228.004 62.0011C227.865 62.4007 227.44 63.4476 227.061 64.3277C226.335 66.0125 226.271 66.279 226.533 66.5408C226.731 66.7385 227.775 66.7539 228.13 66.5643C228.272 66.4883 228.534 66.1072 228.712 65.7175C228.89 65.3277 229.135 64.9273 229.255 64.8276C229.514 64.6124 230.449 64.7004 230.774 64.9705C230.983 65.1435 231.519 66.2273 231.531 66.5004C231.534 66.5745 231.943 66.6542 232.438 66.6773L233.34 66.7195L233.426 65.7341C233.527 64.592 233.334 61.23 233.045 59.0955C232.798 57.2728 232.592 56.9911 231.431 56.8949C230.709 56.8349 230.662 56.8513 230.22 57.3198ZM230.604 63.3067C231.126 63.2322 231.577 61.1664 231.218 60.4954C231.041 60.1659 230.886 60.1667 230.554 60.499C230.254 60.7984 229.881 62.0094 229.923 62.5436C229.96 63.0201 230.26 63.3559 230.604 63.3067ZM170.505 57.0888C170.121 57.2975 169.914 57.8968 169.778 59.1894C169.696 59.9753 169.364 61.638 168.762 64.2766C168.319 66.2193 168.363 66.5243 169.103 66.6632C169.381 66.7152 169.745 66.686 169.968 66.5939C170.307 66.4534 170.379 66.3133 170.584 65.3995C170.872 64.1193 171.088 63.7481 171.164 63.6186L171.174 63.6015L171.181 63.5882L171.33 63.4173L171.465 63.2826C171.465 63.2826 171.532 63.1478 171.569 63.0542C171.606 62.9112 171.649 62.9154 171.686 62.919C171.689 62.9193 171.692 62.9196 171.695 62.9198C171.698 62.92 171.7 62.9201 171.702 62.9201C171.735 62.9201 171.802 62.9457 171.904 62.9956C171.914 63.0006 171.937 63.0131 171.968 63.1197C171.968 63.2709 171.999 63.3398 172.052 63.455L172.064 63.4824C172.163 63.5641 172.284 64.0384 172.333 64.5365C172.512 66.3209 172.73 66.5896 174 66.5856L174.007 66.5856C174.333 66.5845 174.558 66.5838 174.731 66.4878C175.12 66.2712 175.24 65.5697 175.629 63.2847L175.633 63.2632C175.858 61.9419 176.164 60.2849 176.312 59.5809C176.61 58.1667 176.657 57.3506 176.448 57.2215C176.373 57.1749 176.341 57.0886 176.378 57.0296C176.485 56.8562 175.023 56.9426 174.806 57.1224C174.697 57.2129 174.529 57.6362 174.433 58.0632L174.424 58.1024L174.424 58.1028C173.936 60.2632 173.85 60.6459 173.681 60.6867C173.645 60.6954 173.605 60.6884 173.556 60.6797L173.552 60.679C173.175 60.6127 173.108 60.4485 173.148 59.6994C173.201 58.7224 172.89 57.4092 172.538 57.1246C172.175 56.8307 171.018 56.8102 170.505 57.0888Z" fill="#FA2C22"/>
<path d="M258.171 54.5717H247.931L242.406 69.6631L252.916 70L258.171 54.5717Z" fill="#FA2C22"/>
<path fill-rule="evenodd" clip-rule="evenodd" d="M108.577 0.104856L96.6241 0.140023L96.545 0.64451C96.3984 1.58166 96.3456 1.82056 96.0908 2.6987C95.2632 5.55071 92.5241 14.8255 92.191 15.9037C91.9735 16.6077 91.4794 18.3055 91.093 19.6766C90.7064 21.0476 89.9769 23.473 89.4716 25.0664C88.304 28.748 87.9664 29.8863 87.4732 31.8036C87.2538 32.6559 86.5168 35.1722 85.8351 37.3955C84.5533 41.5763 84.0334 43.3154 83.4788 45.2781C83.3009 45.908 83.0592 46.6921 82.9417 47.0205C82.8242 47.3489 82.6372 47.9684 82.526 48.3973C82.415 48.8262 82.2898 49.266 82.248 49.3749C82.1823 49.5464 82.8777 49.5777 87.4721 49.6104C98.501 49.6887 145.519 49.6409 145.608 49.5511C145.684 49.4749 146.579 46.4065 147.737 42.2463C147.998 41.3108 148.665 38.979 149.086 37.5303C149.28 36.8633 149.551 36.075 149.689 35.7786C150.04 35.0196 150.439 33.7082 150.346 33.6152C150.303 33.5724 141.714 33.5291 131.259 33.5192L112.251 33.501L112.311 33.225C112.345 33.0732 112.526 32.2213 112.714 31.332C112.903 30.4427 113.202 29.1693 113.379 28.5024C113.556 27.8354 113.74 27.0471 113.787 26.7507C113.834 26.4542 113.986 25.8479 114.124 25.4032C114.262 24.9586 114.596 23.8368 114.867 22.9104C115.137 21.9841 115.444 20.9533 115.548 20.6198C115.949 19.3388 116.538 17.3938 116.957 15.9711C117.197 15.1559 117.659 13.6097 117.985 12.5351C118.31 11.4605 118.736 10.0356 118.931 9.36857C119.126 8.70158 119.421 7.7011 119.586 7.14528C119.915 6.03929 120.386 4.41252 120.952 2.42921C121.153 1.72516 121.428 0.924103 121.564 0.649223C121.699 0.374208 121.809 0.116576 121.809 0.0765569C121.809 0.0365376 121.521 0.0186189 121.169 0.0368094C120.817 0.0548653 115.151 0.085453 108.577 0.104856ZM192.935 0.0688755C192.899 0.104718 185.982 0.138138 177.563 0.143123C160.806 0.15296 162.098 0.0884137 162.098 0.916287C162.098 1.10965 161.945 1.75656 161.758 2.35375C161.571 2.95107 161.174 4.28869 160.875 5.32622C160.034 8.24978 159.44 10.2719 158.797 12.4003C158.472 13.4749 157.805 15.6881 157.315 17.3185C156.825 18.9489 156.055 21.435 155.604 22.8431C155.154 24.2512 154.709 25.6761 154.614 26.0096C154.52 26.3431 154.195 27.4648 153.892 28.5024C152.281 34.0145 151.679 36.2077 150.785 39.8379C150.027 42.91 148.736 47.2683 148.082 48.9595L147.83 49.6091L150.012 49.5824C151.213 49.5677 156.859 49.5649 162.56 49.5761C170.668 49.592 172.948 49.5602 173.028 49.4297C173.085 49.338 173.263 48.715 173.425 48.0454C173.586 47.3757 173.93 46.1 174.188 45.2107C174.447 44.3214 174.959 42.563 175.325 41.3031C175.691 40.0433 176.2 38.4894 176.456 37.8502C176.711 37.2108 177.131 35.9678 177.389 35.0879C178.264 32.101 178.98 30.2932 179.193 30.5328C179.254 30.6018 179.745 31.78 180.285 33.1511C180.824 34.5221 181.627 36.3657 182.069 37.2478C183.281 39.6684 184.835 43.4123 186.355 47.5688C186.667 48.421 187.015 49.2245 187.129 49.3541C187.323 49.574 187.91 49.5899 195.81 49.5899H204.283L207.567 46.255C209.374 44.4209 212.234 41.6164 213.923 40.023C215.612 38.4297 218.376 35.7635 220.066 34.0982C222.505 31.6941 223.138 31.1349 223.138 31.384C223.138 31.5565 222.827 32.7674 222.447 34.075C222.067 35.3826 221.436 37.6953 221.046 39.2146C220.347 41.9316 219.435 45.0331 218.443 48.0606L217.94 49.5972L220.033 49.5739C221.185 49.5612 223.795 49.5614 225.833 49.5743C227.871 49.5874 232.61 49.5961 236.366 49.594L243.193 49.5899L243.402 48.9499C243.518 48.5979 243.731 47.7912 243.877 47.1572C244.024 46.5234 244.231 45.7352 244.338 45.4056C244.446 45.0761 244.694 44.2608 244.89 43.5938C245.087 42.9268 245.391 41.987 245.566 41.5052C245.742 41.0235 246.048 40.0837 246.247 39.4167C246.445 38.7497 246.877 37.3454 247.205 36.2959C247.534 35.2465 247.919 33.9731 248.061 33.4662C248.372 32.3561 248.799 30.9124 249.899 27.2554C250.218 26.1919 250.534 25.0684 251.65 21.024C252.196 19.0445 252.78 16.9959 253.051 16.1058C253.187 15.6612 253.49 14.6304 253.725 13.8152C253.96 12.9999 254.293 11.8782 254.466 11.3224C255.093 9.30309 255.958 6.37333 256.495 4.45038C256.692 3.74634 257.067 2.52137 257.329 1.72813C257.59 0.935019 257.811 0.247279 257.82 0.199714C257.828 0.152284 250.587 0.121698 241.729 0.131939L225.624 0.150533L221.45 4.26322C219.155 6.52519 214.996 10.6305 212.21 13.3861C209.424 16.1418 206.652 18.8383 206.05 19.3782C205.449 19.9182 204.85 20.5405 204.719 20.7614C204.471 21.1825 203.883 21.4261 203.112 21.4274C202.725 21.4282 202.677 21.3772 202.513 20.7882C202.415 20.4363 202.1 19.6024 201.812 18.9355C201.524 18.2685 201.016 17.0861 200.685 16.3079C199.376 13.239 198.959 12.2687 198.253 10.6486C197.849 9.72228 197.404 8.69148 197.262 8.35798C197.121 8.02449 196.722 7.08464 196.376 6.26944C195.408 3.98618 194.443 1.6175 194.207 0.947012C194.09 0.613518 193.935 0.264933 193.862 0.172229C193.735 0.00986109 193.068 -0.064522 192.935 0.0688755ZM19.7545 0.351705C19.7095 0.468933 19.6728 0.746246 19.6728 0.967902C19.6728 1.18956 19.2555 2.71567 18.7454 4.35916C17.5462 8.22391 16.0945 13.0226 15.2935 15.769C15.0882 16.473 14.7829 17.5038 14.6148 18.0596C14.4468 18.6154 14.1452 19.7069 13.9447 20.485C13.7441 21.2632 13.4353 22.4153 13.2582 23.0452C12.7281 24.9313 11.9963 27.4893 11.6583 28.6371C9.97206 34.3629 9.45828 36.0842 8.58082 38.9451C8.02406 40.7608 7.35707 43.0043 7.0989 43.9307C6.84059 44.857 6.38071 46.4335 6.07686 47.434C5.77314 48.4345 5.52454 49.3473 5.52454 49.4623C5.52454 49.6357 5.65025 49.6577 6.26132 49.5905C6.6665 49.5457 7.8338 49.5222 8.85516 49.5379C14.3569 49.6224 63.7868 49.67 67.5072 49.5942L71.8864 49.505L73.0016 49.0821C74.8433 48.3836 77.2861 46.6654 79.5472 44.4783C81.7446 42.3527 82.3302 41.2894 83.4664 37.363C83.8686 35.9729 84.3198 34.4412 84.4688 33.9595C85.7835 29.7103 86.1495 28.4661 86.6956 26.3874C87.0401 25.0759 87.4751 23.5297 87.6622 22.9514C87.8494 22.3731 88.3298 20.7781 88.7297 19.4071C89.9691 15.1588 90.5195 13.3099 90.8155 12.4003C91.7601 9.4982 91.8253 8.33521 91.1513 6.41415C90.2555 3.86073 88.6762 1.83606 86.8008 0.83652C86.1209 0.474056 85.7827 0.39281 84.4705 0.276659C83.493 0.190153 71.4769 0.140425 51.3859 0.139751C22.7405 0.138674 19.8288 0.158211 19.7545 0.351705ZM52.051 16.2655C58.8387 16.297 63.6216 16.267 64.0433 16.1902C64.4292 16.1198 64.7622 16.0793 64.7833 16.1C64.8045 16.1208 64.7002 16.4641 64.5517 16.8628C64.2706 17.6177 64.2101 17.8206 62.587 23.4494C62.042 25.3392 61.3876 27.5221 61.133 28.3002C60.4052 30.5231 59.9615 32.0257 59.9615 32.2666C59.9615 32.6816 59.4187 33.5841 59.2463 33.4561C59.0711 33.3262 36.3454 33.4814 35.6201 33.6175L35.2358 33.6445L35.3886 33.2901C35.5008 33.0651 35.7322 32.3808 35.9027 31.7696C36.073 31.1583 36.6144 29.2637 37.1057 27.5591C38.7908 21.7115 39.9909 17.4526 40.1552 16.7374C40.2889 16.1554 40.361 16.0394 40.54 16.1173C40.6612 16.1698 45.8412 16.2367 52.051 16.2655Z" fill="white"/>
</svg>
